<svg xmlns="http://www.w3.org/2000/svg" width="128" height="224" shape-rendering="crispEdges">
  <!-- 4 cols x 7 rows, each frame 32x32 -->
  <rect width="100%" height="100%" fill="none"/>
  <defs>
    <g id="face">
      <rect x="4" y="4" width="24" height="24" rx="4" fill="#8b5cf6"/>
      <circle cx="12" cy="12" r="3" fill="#fff"/>
      <circle cx="20" cy="12" r="3" fill="#fff"/>
      <circle cx="12" cy="12" r="1" fill="#1f2937"/>
      <circle cx="20" cy="12" r="1" fill="#1f2937"/>
      <rect x="12" y="20" width="8" height="2" rx="1" fill="#374151"/>
    </g>
  </defs>
  <!-- draw a simple variation across frames -->
  <g>
    <!-- rows 0..6, cols 0..3 -->
    <!-- we just place the same face; animation will move through frames -->
    <!-- row 0: idle -->
    <use href="#face" x="0" y="0"/>
    <use href="#face" x="32" y="0"/>
    <use href="#face" x="64" y="0"/>
    <use href="#face" x="96" y="0"/>
    <!-- row 1: listening -->
    <use href="#face" x="0" y="32"/>
    <use href="#face" x="32" y="32"/>
    <use href="#face" x="64" y="32"/>
    <use href="#face" x="96" y="32"/>
    <!-- row 2: thinking -->
    <use href="#face" x="0" y="64"/>
    <use href="#face" x="32" y="64"/>
    <use href="#face" x="64" y="64"/>
    <use href="#face" x="96" y="64"/>
    <!-- row 3: responding -->
    <use href="#face" x="0" y="96"/>
    <use href="#face" x="32" y="96"/>
    <use href="#face" x="64" y="96"/>
    <use href="#face" x="96" y="96"/>
    <!-- row 4: suggesting -->
    <use href="#face" x="0" y="128"/>
    <use href="#face" x="32" y="128"/>
    <use href="#face" x="64" y="128"/>
    <use href="#face" x="96" y="128"/>
    <!-- row 5: celebrating (6 frames, but we only have 4 here; renderer will loop in available frames) -->
    <use href="#face" x="0" y="160"/>
    <use href="#face" x="32" y="160"/>
    <use href="#face" x="64" y="160"/>
    <use href="#face" x="96" y="160"/>
    <!-- row 6: error (2 frames) -->
    <use href="#face" x="0" y="192"/>
    <use href="#face" x="32" y="192"/>
    <use href="#face" x="64" y="192"/>
    <use href="#face" x="96" y="192"/>
  </g>
</svg>
