<svg xmlns="http://www.w3.org/2000/svg" width="64" height="96" shape-rendering="crispEdges">
  <!-- 4 cols x 3 rows, each frame 16x16; we will repeat rows to fill -->
  <rect width="100%" height="100%" fill="none"/>
  <defs>
    <g id="slime">
      <rect x="2" y="6" width="12" height="8" rx="4" fill="#34d399"/>
      <circle cx="6" cy="10" r="1.5" fill="#fff"/>
      <circle cx="10" cy="10" r="1.5" fill="#fff"/>
      <circle cx="6" cy="10" r="0.5" fill="#1f2937"/>
      <circle cx="10" cy="10" r="0.5" fill="#1f2937"/>
    </g>
  </defs>
  <g>
    <!-- row 0 -->
    <use href="#slime" x="0" y="0"/>
    <use href="#slime" x="16" y="0"/>
    <use href="#slime" x="32" y="0"/>
    <use href="#slime" x="48" y="0"/>
    <!-- row 1 -->
    <use href="#slime" x="0" y="16"/>
    <use href="#slime" x="16" y="16"/>
    <use href="#slime" x="32" y="16"/>
    <use href="#slime" x="48" y="16"/>
    <!-- row 2 -->
    <use href="#slime" x="0" y="32"/>
    <use href="#slime" x="16" y="32"/>
    <use href="#slime" x="32" y="32"/>
    <use href="#slime" x="48" y="32"/>
    <!-- row 3 repeat (to reach 6 rows mapping in registry if needed) -->
    <use href="#slime" x="0" y="48"/>
    <use href="#slime" x="16" y="48"/>
    <use href="#slime" x="32" y="48"/>
    <use href="#slime" x="48" y="48"/>
    <use href="#slime" x="0" y="64"/>
    <use href="#slime" x="16" y="64"/>
    <use href="#slime" x="32" y="64"/>
    <use href="#slime" x="48" y="64"/>
    <use href="#slime" x="0" y="80"/>
    <use href="#slime" x="16" y="80"/>
    <use href="#slime" x="32" y="80"/>
    <use href="#slime" x="48" y="80"/>
  </g>
</svg>
